<?xml version="1.0" encoding="utf-8"?>
<!-- Generator: Adobe Illustrator 18.0.0, SVG Export Plug-In . SVG Version: 6.00 Build 0)  -->
<!DOCTYPE svg PUBLIC "-//W3C//DTD SVG 1.0//EN" "http://www.w3.org/TR/2001/REC-SVG-20010904/DTD/svg10.dtd">
<svg version="1.0" id="Layer_1" xmlns="http://www.w3.org/2000/svg" xmlns:xlink="http://www.w3.org/1999/xlink" x="0px" y="0px"
	 viewBox="0 0 64 64" enable-background="new 0 0 64 64" xml:space="preserve">
<path d="M62,13.4c-2.2,1-4.6,1.6-7.1,1.9c2.5-1.5,4.5-3.9,5.4-6.8c-2.4,1.4-5,2.4-7.8,3c-2.2-2.4-5.4-3.9-9-3.9
	c-6.8,0-12.3,5.5-12.3,12.3c0,1,0.1,1.9,0.3,2.8C21.3,22.2,12.2,17.3,6.2,9.9c-1.1,1.8-1.7,3.9-1.7,6.2c0,4.3,2.2,8,5.5,10.2
	c-2-0.1-3.9-0.6-5.6-1.5c0,0.1,0,0.1,0,0.2c0,6,4.2,10.9,9.9,12.1c-1,0.3-2.1,0.4-3.2,0.4c-0.8,0-1.6-0.1-2.3-0.2
	c1.6,4.9,6.1,8.5,11.5,8.5C16,49.1,10.7,51,4.9,51c-1,0-2-0.1-2.9-0.2c5.4,3.5,11.9,5.5,18.9,5.5c22.6,0,35-18.8,35-35
	c0-0.5,0-1.1,0-1.6C58.3,18,60.4,15.9,62,13.4L62,13.4z"/>
</svg>
