<?xml version="1.0" encoding="utf-8"?>
<!-- Generator: Adobe Illustrator 18.0.0, SVG Export Plug-In . SVG Version: 6.00 Build 0)  -->
<!DOCTYPE svg PUBLIC "-//W3C//DTD SVG 1.0//EN" "http://www.w3.org/TR/2001/REC-SVG-20010904/DTD/svg10.dtd">
<svg version="1.0" id="Layer_1" xmlns="http://www.w3.org/2000/svg" xmlns:xlink="http://www.w3.org/1999/xlink" x="0px" y="0px"
	 viewBox="0 0 64 64" enable-background="new 0 0 64 64" xml:space="preserve">
<g>
	<path d="M61.7,19.1L44.9,2.3c-0.5-0.5-1.3-0.4-1.6,0.3L41,7.3L56.7,23l4.7-2.2C62.1,20.4,62.2,19.7,61.7,19.1z"/>
	<path d="M38.1,9.9l-15.4,1.3c-1,0.1-1.9,0.3-2.2,1.7c0,0,0,0,0,0C16.3,33,2,52.6,2,52.6L5.4,56l15.9-15.9c-0.4-0.7-0.5-1.6-0.5-2.4
		c0-3.1,2.5-5.6,5.6-5.6s5.6,2.5,5.6,5.6c0,3.1-2.5,5.6-5.6,5.6c-0.9,0-1.7-0.2-2.4-0.5L8,58.6l3.4,3.4c0,0,19.6-14.3,39.7-18.5
		c0,0,0,0,0,0c1.3-0.3,1.6-1.1,1.7-2.2l1.3-15.4L38.1,9.9L38.1,9.9z"/>
</g>
</svg>
