<?xml version="1.0" encoding="utf-8"?>
<!-- Generator: Adobe Illustrator 18.0.0, SVG Export Plug-In . SVG Version: 6.00 Build 0)  -->
<!DOCTYPE svg PUBLIC "-//W3C//DTD SVG 1.0//EN" "http://www.w3.org/TR/2001/REC-SVG-20010904/DTD/svg10.dtd">
<svg version="1.0" id="Layer_1" xmlns="http://www.w3.org/2000/svg" xmlns:xlink="http://www.w3.org/1999/xlink" x="0px" y="0px"
	 viewBox="0 0 64 64" enable-background="new 0 0 64 64" xml:space="preserve">
<g>
	<rect x="41.2" y="15.7" width="15" height="3.6"/>
	<path d="M62,37.1c0-2.7-0.5-5.1-1.5-7.3c-1-2.2-2.5-3.9-4.5-5.2c-2-1.3-4.4-2-7-2c-4,0-7.3,1.3-9.9,4c-2.5,2.7-3.8,6.1-3.8,10.1
		c0,4.2,1.2,7.6,3.7,10.2c2.5,2.6,5.8,3.9,10,3.9c6.4,0,10.6-3,12.5-9H55c-0.3,1.1-1.1,1.9-2.2,2.5s-2.3,0.9-3.6,0.9l0,0
		c-2.1,0-3.8-0.6-4.9-1.8c-1.1-1.2-1.7-2.9-1.7-5h19.3C62,37.9,62,37.5,62,37.1z M42.7,33.9c0.1-1.8,0.7-3.1,1.8-4.2
		c1.1-1,2.5-1.5,4.3-1.5c3.6,0,5.5,1.9,5.9,5.7H42.7z"/>
	<path d="M26.2,30c3.4-1.6,5-4.2,5-7.7c0-1.8-0.3-3.3-0.9-4.5c-0.6-1.2-1.5-2.2-2.6-2.8c-1.1-0.7-2.4-1.1-3.7-1.4
		c-1.3-0.3-2.8-0.4-4.5-0.4H2l0,0v36.9h17.9c1.4,0,2.7-0.1,3.9-0.4c1.2-0.3,2.4-0.7,3.5-1.2c1.1-0.6,2.1-1.3,2.9-2.1
		c0.8-0.8,1.5-1.8,1.9-3c0.5-1.2,0.7-2.5,0.7-4c0-2.4-0.6-4.4-1.7-6C30.1,31.8,28.4,30.7,26.2,30z M10.1,19.5h7.6
		c3.7,0,5.6,1.4,5.6,4.2c0,1.5-0.4,2.6-1.3,3.3c-0.9,0.7-2.1,1.1-3.6,1.1h-8.2V19.5z M18.8,43.8h-8.7V33.7H19c3.9,0,5.8,1.8,5.8,5.3
		C24.8,42.2,22.8,43.8,18.8,43.8z"/>
</g>
</svg>
