<?xml version="1.0" encoding="utf-8"?>
<!-- Generator: Adobe Illustrator 18.0.0, SVG Export Plug-In . SVG Version: 6.00 Build 0)  -->
<!DOCTYPE svg PUBLIC "-//W3C//DTD SVG 1.0//EN" "http://www.w3.org/TR/2001/REC-SVG-20010904/DTD/svg10.dtd">
<svg version="1.0" id="Layer_1" xmlns="http://www.w3.org/2000/svg" xmlns:xlink="http://www.w3.org/1999/xlink" x="0px" y="0px"
	 viewBox="0 0 64 64" enable-background="new 0 0 64 64" xml:space="preserve">
<path d="M62,48.7v7H40.5v-7H45v-31h-0.2l-10.5,38h-8.1l-10.4-38h-0.3v31H20v7H2v-7h2.3c0.5,0,0.9-0.2,1.4-0.7s0.7-0.9,0.7-1.3V17.3
	c0-0.4-0.2-0.8-0.7-1.3c-0.5-0.5-1-0.7-1.4-0.7H2v-7h22.5l7.4,27.5h0.2l7.5-27.5H62v7h-2.4c-0.4,0-0.9,0.2-1.4,0.7s-0.7,0.9-0.7,1.3
	v29.5c0,0.4,0.2,0.8,0.7,1.3c0.5,0.4,0.9,0.7,1.4,0.7L62,48.7L62,48.7z"/>
</svg>
